<?xml version="1.0" standalone="no"?>
<!DOCTYPE svg PUBLIC "-//W3C//DTD SVG 20010904//EN"
 "http://www.w3.org/TR/2001/REC-SVG-20010904/DTD/svg10.dtd">
<svg version="1.0" xmlns="http://www.w3.org/2000/svg"
 width="225.000000pt" height="225.000000pt" viewBox="0 0 225.000000 225.000000"
 preserveAspectRatio="xMidYMid meet">

<g transform="translate(0.000000,225.000000) scale(0.100000,-0.100000)"
fill="#000000" stroke="none">
<path d="M333 1416 c-47 -21 -67 -58 -60 -109 5 -34 15 -50 54 -86 126 -114
133 -122 133 -151 0 -42 -9 -59 -42 -76 -40 -21 -81 -10 -117 31 -26 30 -31
32 -47 20 -17 -12 -16 -16 22 -53 68 -69 162 -65 211 7 46 68 24 125 -85 215
-87 72 -103 102 -77 142 22 35 79 33 117 -3 25 -24 30 -25 43 -12 14 13 11 19
-18 47 -40 38 -88 48 -134 28z"/>
<path d="M752 1412 c-121 -44 -183 -163 -152 -293 19 -76 95 -152 169 -168 28
-6 64 -11 80 -11 80 0 212 72 183 101 -10 11 -17 10 -40 -4 -68 -45 -114 -60
-169 -54 -62 7 -113 35 -150 84 -22 29 -28 49 -31 104 -4 60 -1 74 22 113 30
51 89 91 151 100 52 9 129 -15 166 -50 24 -23 31 -25 44 -14 14 12 13 16 -7
37 -60 64 -174 87 -266 55z"/>
<path d="M1620 1185 l0 -238 118 5 c128 6 162 15 206 56 44 42 66 98 66 172 0
104 -46 179 -132 214 -20 9 -86 19 -147 22 l-111 7 0 -238z m240 168 c47 -19
70 -41 91 -88 36 -79 12 -191 -51 -237 -30 -21 -112 -38 -186 -38 l-54 0 0
188 c0 104 3 192 7 196 11 10 154 -5 193 -21z"/>
</g>
</svg>
